<svg width="32" height="32" viewBox="0 0 32 32" fill="none" xmlns="http://www.w3.org/2000/svg">
<path d="M17.32 5.904C17.16 6.256 16.992 6.656 16.816 7.104C16.64 7.536 16.464 8.024 16.288 8.568C16.144 9.016 15.96 9.592 15.736 10.296C15.512 10.984 15.264 11.744 14.992 12.576C14.72 13.392 14.432 14.24 14.128 15.12C13.84 15.984 13.56 16.824 13.288 17.64C13.016 18.456 12.76 19.2 12.52 19.872C12.28 20.528 12.072 21.064 11.896 21.48L8.344 21.6C8.568 21.088 8.816 20.464 9.088 19.728C9.36 18.992 9.648 18.192 9.952 17.328C10.256 16.448 10.552 15.552 10.84 14.64C11.144 13.728 11.424 12.848 11.68 12C11.952 11.152 12.192 10.368 12.4 9.648C12.624 8.928 12.8 8.344 12.928 7.896C13.088 7.272 13.208 6.76 13.288 6.36C13.384 5.944 13.456 5.528 13.504 5.112L17.32 5.904ZM21.616 13.656C22.048 14.296 22.512 15.048 23.008 15.912C23.504 16.776 23.992 17.68 24.472 18.624C24.968 19.552 25.424 20.448 25.84 21.312C26.256 22.176 26.6 22.952 26.872 23.64L23.632 25.08C23.36 24.344 23.024 23.512 22.624 22.584C22.24 21.656 21.816 20.712 21.352 19.752C20.904 18.792 20.44 17.888 19.96 17.04C19.496 16.176 19.048 15.456 18.616 14.88L21.616 13.656ZM8.128 20.544C8.672 20.512 9.328 20.472 10.096 20.424C10.88 20.36 11.72 20.288 12.616 20.208C13.512 20.112 14.424 20.016 15.352 19.92C16.296 19.824 17.216 19.728 18.112 19.632C19.024 19.52 19.872 19.416 20.656 19.32C21.44 19.224 22.104 19.136 22.648 19.056L23.368 22.128C22.776 22.208 22.064 22.296 21.232 22.392C20.416 22.488 19.536 22.592 18.592 22.704C17.648 22.8 16.688 22.904 15.712 23.016C14.736 23.128 13.784 23.232 12.856 23.328C11.928 23.424 11.072 23.512 10.288 23.592C9.504 23.656 8.84 23.72 8.296 23.784C7.992 23.816 7.632 23.864 7.216 23.928C6.816 23.976 6.424 24.024 6.04 24.072L5.488 20.568C5.888 20.568 6.328 20.568 6.808 20.568C7.304 20.568 7.744 20.56 8.128 20.544Z" fill="#711A11"/>
<path d="M18.32 4.904C18.16 5.256 17.992 5.656 17.816 6.104C17.64 6.536 17.464 7.024 17.288 7.568C17.144 8.016 16.96 8.592 16.736 9.296C16.512 9.984 16.264 10.744 15.992 11.576C15.72 12.392 15.432 13.24 15.128 14.12C14.84 14.984 14.56 15.824 14.288 16.64C14.016 17.456 13.76 18.2 13.52 18.872C13.28 19.528 13.072 20.064 12.896 20.48L9.344 20.6C9.568 20.088 9.816 19.464 10.088 18.728C10.36 17.992 10.648 17.192 10.952 16.328C11.256 15.448 11.552 14.552 11.84 13.64C12.144 12.728 12.424 11.848 12.68 11C12.952 10.152 13.192 9.368 13.4 8.648C13.624 7.928 13.8 7.344 13.928 6.896C14.088 6.272 14.208 5.76 14.288 5.36C14.384 4.944 14.456 4.528 14.504 4.112L18.32 4.904ZM22.616 12.656C23.048 13.296 23.512 14.048 24.008 14.912C24.504 15.776 24.992 16.68 25.472 17.624C25.968 18.552 26.424 19.448 26.84 20.312C27.256 21.176 27.6 21.952 27.872 22.64L24.632 24.08C24.36 23.344 24.024 22.512 23.624 21.584C23.24 20.656 22.816 19.712 22.352 18.752C21.904 17.792 21.44 16.888 20.96 16.04C20.496 15.176 20.048 14.456 19.616 13.88L22.616 12.656ZM9.128 19.544C9.672 19.512 10.328 19.472 11.096 19.424C11.88 19.36 12.72 19.288 13.616 19.208C14.512 19.112 15.424 19.016 16.352 18.92C17.296 18.824 18.216 18.728 19.112 18.632C20.024 18.52 20.872 18.416 21.656 18.32C22.44 18.224 23.104 18.136 23.648 18.056L24.368 21.128C23.776 21.208 23.064 21.296 22.232 21.392C21.416 21.488 20.536 21.592 19.592 21.704C18.648 21.8 17.688 21.904 16.712 22.016C15.736 22.128 14.784 22.232 13.856 22.328C12.928 22.424 12.072 22.512 11.288 22.592C10.504 22.656 9.84 22.72 9.296 22.784C8.992 22.816 8.632 22.864 8.216 22.928C7.816 22.976 7.424 23.024 7.04 23.072L6.488 19.568C6.888 19.568 7.328 19.568 7.808 19.568C8.304 19.568 8.744 19.56 9.128 19.544Z" fill="#BA3A2C"/>
</svg>
